<svg version="1.1" xmlns="http://www.w3.org/2000/svg" x="0px" y="0px"
	 viewBox="0 0 512 512" xml:space="preserve">
<style type="text/css">
	.st0{fill:#009688;}
	.st1{fill:#ff9800;}
	.st2{fill:#b0bec5;}
</style>
<g id="XMLID_133_">
	<path id="XMLID_28_" class="st0" d="M350.5,191.7c-6.7-16.1-16.3-29.3-28.8-39.6c-12.5-10.3-27.4-17.9-44.8-22.7
		c-17.4-4.8-36.8-7.2-58.1-7.2c-10.1,0-23.4,0.4-37.5,1.3c-14,0.8-28.3,2.5-41.8,4.9v243c13.5,2.6,27.4,4.4,40.9,5.2
		c13.4,0.8,25.8,1.3,35.9,1.3c22.1,0,42.3-2.6,60.1-7.9c17.8-5.3,33-13.2,45.3-23.8c12.4-10.6,22-23.9,28.7-40
		c6.7-16.1,10.1-34.9,10.1-56.5C360.5,227.1,357.2,207.8,350.5,191.7z"/>
	<path id="XMLID_130_" d="M216.3,381.8c-10.4,0-22.9-0.4-36.2-1.3c-14.1-0.9-28-2.7-41.4-5.3l-3.2-0.6V125l3.3-0.6
		c13.4-2.4,27.6-4,42.2-4.9c13.7-0.8,27.1-1.3,37.7-1.3c21.6,0,41.5,2.5,59.2,7.3c17.9,4.9,33.4,12.8,46.3,23.5
		c12.9,10.7,23,24.5,29.9,41.1l0,0c6.9,16.4,10.3,36.5,10.3,59.5c0,22-3.5,41.5-10.4,58.1c-6.9,16.5-16.9,30.5-29.8,41.5
		c-12.7,10.8-28.4,19.1-46.8,24.6C259.4,379.1,238.8,381.8,216.3,381.8z M143.5,368c12.1,2.2,24.5,3.8,37.1,4.5
		c13.1,0.8,25.5,1.3,35.7,1.3c21.8,0,41.6-2.6,58.9-7.8c17.3-5.1,32.1-12.9,43.9-23c11.9-10.2,21.2-23.1,27.6-38.5
		c6.5-15.6,9.8-34.1,9.8-55c0-22-3.3-41-9.7-56.4c-6.4-15.4-15.7-28.2-27.7-38.1c-12-9.9-26.6-17.3-43.3-21.9
		c-17-4.7-36.2-7.1-57.1-7.1c-10.5,0-23.7,0.4-37.2,1.3c-13.1,0.8-25.9,2.2-38,4.2V368z"/>
</g>
<g id="XMLID_76_">
	<path id="XMLID_25_" class="st1" d="M299.3,243.3c-7.3,27.2-35.3,43.4-62.5,36.1c13.6,3.6,21.7,17.6,18,31.2
		c-3.6,13.6-17.6,21.7-31.2,18s-21.7-17.6-18-31.2c3.6-13.6,17.6-21.7,31.2-18c-27.2-7.3-43.4-35.3-36.1-62.5
		c7.3-27.2,35.3-43.4,62.5-36.1C290.4,188.1,306.6,216.1,299.3,243.3z"/>
	<path id="XMLID_26_" d="M230.3,333.5c-2.6,0-5.1-0.3-7.7-1c-7.6-2-14-6.9-17.9-13.7c-3.9-6.8-5-14.8-2.9-22.4s6.9-14,13.7-17.9
		c1.5-0.9,3-1.6,4.6-2.2c-7.2-4.7-13.3-11-17.7-18.7c-7.3-12.7-9.3-27.5-5.5-41.7s12.9-26.1,25.6-33.4c12.7-7.3,27.5-9.3,41.7-5.5
		c14.2,3.8,26.1,12.9,33.4,25.6s9.3,27.5,5.5,41.7c-3.8,14.2-12.9,26.1-25.6,33.4c-7.7,4.4-16.1,6.9-24.7,7.3
		c1.1,1.3,2.1,2.7,2.9,4.2c3.9,6.8,5,14.8,2.9,22.4c-2,7.6-6.9,14-13.7,17.9C240.4,332.1,235.4,333.5,230.3,333.5z M230.2,282.5
		c-3.7,0-7.4,1-10.7,2.9c-5,2.9-8.5,7.5-10,13.1s-0.7,11.3,2.1,16.3c2.9,5,7.5,8.5,13.1,10c5.5,1.5,11.3,0.7,16.3-2.1
		c5-2.9,8.5-7.5,10-13.1c1.5-5.5,0.7-11.3-2.1-16.3c-2.9-5-7.5-8.5-13.1-10c0,0,0,0,0,0l0,0h0C233.9,282.7,232.1,282.5,230.2,282.5z
		 M237.9,275.5c12.1,3.2,24.8,1.6,35.7-4.7c10.9-6.3,18.6-16.4,21.9-28.5l0,0c3.2-12.1,1.6-24.8-4.7-35.7
		c-6.3-10.9-16.4-18.6-28.5-21.9c-12.1-3.3-24.8-1.6-35.7,4.7c-10.9,6.3-18.6,16.4-21.9,28.5c-3.2,12.1-1.6,24.8,4.7,35.7
		C215.6,264.4,225.7,272.2,237.9,275.5C237.9,275.5,237.9,275.5,237.9,275.5L237.9,275.5z"/>
</g>
<g id="XMLID_65_">
	<path id="XMLID_8_" class="st0" d="M350.5,191.7c-6.7-16.1-16.3-29.3-28.8-39.6c-12.5-10.3-27.4-17.9-44.8-22.7
		c-17.4-4.8-36.8-7.2-58.1-7.2c-10.1,0-23.4,0.4-37.5,1.3c-14,0.8-28.3,2.5-41.8,4.9v243c13.5,2.6,27.4,4.4,40.9,5.2
		c13.4,0.8,25.8,1.3,35.9,1.3c22.1,0,42.3-2.6,60.1-7.9c17.8-5.3,33-13.2,45.3-23.8c12.4-10.6,22-23.9,28.7-40
		c6.7-16.1,10.1-34.9,10.1-56.5C360.5,227.1,357.2,207.8,350.5,191.7z M299.3,243.3c-7.3,27.2-35.3,43.4-62.5,36.1
		c13.6,3.6,21.7,17.6,18,31.2c-3.6,13.6-17.6,21.7-31.2,18s-21.7-17.6-18-31.2c3.6-13.6,17.6-21.7,31.2-18
		c-27.2-7.3-43.4-35.3-36.1-62.5c7.3-27.2,35.3-43.4,62.5-36.1C290.4,188.1,306.6,216.1,299.3,243.3z"/>
	<path id="XMLID_59_" d="M216.3,381.8c-10.4,0-22.9-0.4-36.2-1.3c-14.1-0.9-28-2.7-41.4-5.3l-3.2-0.6V125l3.3-0.6
		c13.4-2.4,27.6-4,42.2-4.9c13.7-0.8,27.1-1.3,37.7-1.3c21.6,0,41.5,2.5,59.2,7.3c17.9,4.9,33.4,12.8,46.3,23.5
		c12.9,10.7,23,24.5,29.9,41.1l0,0c6.9,16.4,10.3,36.5,10.3,59.5c0,22-3.5,41.5-10.4,58.1c-6.9,16.5-16.9,30.5-29.8,41.5
		c-12.7,10.8-28.4,19.1-46.8,24.6C259.4,379.1,238.8,381.8,216.3,381.8z M143.5,368c12.1,2.2,24.5,3.8,37.1,4.5
		c13.1,0.8,25.5,1.3,35.7,1.3c21.8,0,41.6-2.6,58.9-7.8c17.3-5.1,32.1-12.9,43.9-23c11.9-10.2,21.2-23.1,27.6-38.5
		c6.5-15.6,9.8-34.1,9.8-55c0-22-3.3-41-9.7-56.4c-6.4-15.4-15.7-28.2-27.7-38.1c-12-9.9-26.6-17.3-43.3-21.9
		c-17-4.7-36.2-7.1-57.1-7.1c-10.5,0-23.7,0.4-37.2,1.3c-13.1,0.8-25.9,2.2-38,4.2V368z M230.3,333.5c-2.6,0-5.1-0.3-7.7-1
		c-7.6-2-14-6.9-17.9-13.7c-3.9-6.8-5-14.8-2.9-22.4s6.9-14,13.7-17.9c1.5-0.9,3-1.6,4.6-2.2c-7.2-4.7-13.3-11-17.7-18.7
		c-7.3-12.7-9.3-27.5-5.5-41.7c7.8-29.3,38.1-46.7,67.4-38.9c14.2,3.8,26.1,12.9,33.4,25.6s9.3,27.5,5.5,41.7l-3.9-1l3.9,1
		c-3.8,14.2-12.9,26.1-25.6,33.4c-7.7,4.4-16.1,6.9-24.7,7.3c1.1,1.3,2.1,2.7,2.9,4.2c3.9,6.8,5,14.8,2.9,22.4
		c-2,7.6-6.9,14-13.7,17.9C240.4,332.1,235.4,333.5,230.3,333.5z M230.2,282.5c-3.7,0-7.4,1-10.7,2.9c-5,2.9-8.5,7.5-10,13.1
		c-1.5,5.5-0.7,11.3,2.1,16.3c2.9,5,7.5,8.5,13.1,10c5.5,1.5,11.3,0.7,16.3-2.1c5-2.9,8.5-7.5,10-13.1c1.5-5.5,0.7-11.3-2.1-16.3
		s-7.5-8.5-13.1-10l0,0c0,0,0,0,0,0C233.9,282.7,232.1,282.5,230.2,282.5z M237.9,275.5c12.1,3.2,24.8,1.6,35.7-4.7
		c10.9-6.3,18.6-16.4,21.9-28.5l0,0c3.2-12.1,1.6-24.8-4.7-35.7c-6.3-10.9-16.4-18.6-28.5-21.9c-25-6.7-50.9,8.2-57.6,33.2
		c-3.2,12.1-1.6,24.8,4.7,35.7C215.6,264.5,225.7,272.2,237.9,275.5C237.9,275.5,237.9,275.5,237.9,275.5L237.9,275.5z"/>
</g>
<circle id="XMLID_24_" cx="250" cy="230.1" r="6.4"/>
<rect id="XMLID_22_" x="248" y="192.2" width="4" height="37.9"/>
<rect id="XMLID_16_" x="232.2" y="223.3" transform="matrix(0.866 0.5 -0.5 0.866 145.0263 -90.6942)" width="19.2" height="4"/>
<path id="XMLID_17_" class="st2" d="M234.3,337.5c-2.6,0-5.1-0.3-7.7-1c-7.6-2-14-6.9-17.9-13.7c-3.9-6.8-5-14.8-2.9-22.4
	s6.9-14,13.7-17.9c1.5-0.9,3-1.6,4.6-2.2c-7.2-4.7-13.3-11-17.7-18.7c-7.3-12.7-9.3-27.5-5.5-41.7s12.9-26.1,25.6-33.4
	c12.7-7.3,27.5-9.3,41.7-5.5c14.2,3.8,26.1,12.9,33.4,25.6s9.3,27.5,5.5,41.7c-3.8,14.2-12.9,26.1-25.6,33.4
	c-7.7,4.4-16.1,6.9-24.7,7.3c1.1,1.3,2.1,2.7,2.9,4.2c3.9,6.8,5,14.8,2.9,22.4c-2,7.6-6.9,14-13.7,17.9
	C244.4,336.1,239.4,337.5,234.3,337.5z M234.2,286.5c-3.7,0-7.4,1-10.7,2.9c-5,2.9-8.5,7.5-10,13.1s-0.7,11.3,2.1,16.3
	c2.9,5,7.5,8.5,13.1,10c5.5,1.5,11.3,0.7,16.3-2.1c5-2.9,8.5-7.5,10-13.1s0.7-11.3-2.1-16.3c-2.9-5-7.5-8.5-13.1-10c0,0,0,0,0,0l0,0
	h0C237.9,286.7,236.1,286.5,234.2,286.5z M241.9,279.5c12.1,3.2,24.8,1.6,35.7-4.7c10.9-6.3,18.6-16.4,21.9-28.5l0,0
	c3.2-12.1,1.6-24.8-4.7-35.7c-6.3-10.9-16.4-18.6-28.5-21.9c-12.1-3.3-24.8-1.6-35.7,4.7c-10.9,6.3-18.6,16.4-21.9,28.5
	c-3.2,12.1-1.6,24.8,4.7,35.7C219.6,268.4,229.7,276.2,241.9,279.5C241.9,279.5,241.9,279.5,241.9,279.5L241.9,279.5z"/>
<g id="XMLID_41_">
	<path id="XMLID_54_" d="M216.3,362.8c-1,0-2,0-3,0l0-2c1,0,2,0,3,0V362.8z"/>
	<path id="XMLID_53_" d="M211.4,362.8c-1.8,0-3.7-0.1-5.7-0.1l0-2c1.9,0,3.8,0.1,5.7,0.1L211.4,362.8z M203.8,362.6
		c-1.9-0.1-3.8-0.1-5.7-0.2l0.1-2c1.9,0.1,3.8,0.1,5.7,0.2L203.8,362.6z M196.2,362.3c-1.9-0.1-3.8-0.2-5.7-0.3l0.1-2
		c1.9,0.1,3.8,0.2,5.7,0.3L196.2,362.3z M188.6,362c-1.9-0.1-3.8-0.2-5.7-0.3l0.1-2c1.9,0.1,3.8,0.2,5.7,0.3L188.6,362z M181,361.6
		c-1.9-0.1-3.8-0.3-5.7-0.4l0.2-2c1.9,0.2,3.8,0.3,5.7,0.4L181,361.6z M173.4,361c-1.9-0.2-3.8-0.4-5.7-0.6l0.2-2
		c1.9,0.2,3.8,0.4,5.6,0.6L173.4,361z M165.9,360.2c-1.9-0.2-3.8-0.4-5.7-0.7l0.3-2c1.9,0.2,3.7,0.5,5.6,0.7L165.9,360.2z"/>
	<path id="XMLID_52_" d="M158.3,359.3c-1-0.1-2-0.3-3-0.4l-0.9-0.1v-3.9h2v2.1c0.7,0.1,1.4,0.2,2.1,0.3L158.3,359.3z"/>
	<path id="XMLID_51_" d="M156.5,352.8h-2v-6h2V352.8z M156.5,344.9h-2v-6h2V344.9z M156.5,336.9h-2v-6h2V336.9z M156.5,328.9h-2v-6
		h2V328.9z M156.5,320.9h-2v-6h2V320.9z M156.5,312.9h-2v-6h2V312.9z M156.5,304.9h-2v-6h2V304.9z M156.5,296.9h-2v-6h2V296.9z
		 M156.5,288.9h-2v-6h2V288.9z M156.5,280.9h-2v-6h2V280.9z M156.5,272.9h-2v-6h2V272.9z M156.5,264.9h-2v-6h2V264.9z M156.5,256.9
		h-2v-6h2V256.9z M156.5,248.9h-2v-6h2V248.9z M156.5,240.9h-2v-6h2V240.9z M156.5,232.9h-2v-6h2V232.9z M156.5,225h-2v-6h2V225z
		 M156.5,217h-2v-6h2V217z M156.5,209h-2v-6h2V209z M156.5,201h-2v-6h2V201z M156.5,193h-2v-6h2V193z M156.5,185h-2v-6h2V185z
		 M156.5,177h-2v-6h2V177z M156.5,169h-2v-6h2V169z M156.5,161h-2v-6h2V161z M156.5,153h-2v-6h2V153z"/>
	<path id="XMLID_50_" d="M156.5,145h-2v-3.9l0.9-0.1c1-0.1,2-0.3,3-0.4l0.2,2c-0.7,0.1-1.4,0.2-2.1,0.3V145z"/>
	<path id="XMLID_46_" d="M306.9,162.1c-1.6-1.2-3.3-2.3-4.9-3.4l1.1-1.7c1.7,1.1,3.4,2.3,5.1,3.5L306.9,162.1z M300.3,157.7
		c-1.7-1-3.4-2-5.2-3l0.9-1.8c1.8,1,3.6,2,5.3,3L300.3,157.7z M293.3,153.8c-1.8-0.9-3.6-1.8-5.4-2.6l0.8-1.8
		c1.9,0.8,3.7,1.7,5.5,2.6L293.3,153.8z M286,150.5c-1.8-0.8-3.7-1.5-5.6-2.1l0.7-1.9c1.9,0.7,3.9,1.4,5.7,2.2L286,150.5z
		 M278.5,147.7c-1.9-0.6-3.8-1.2-5.8-1.8l0.5-1.9c2,0.6,3.9,1.2,5.8,1.8L278.5,147.7z M270.8,145.4c-1.9-0.5-3.9-1-5.9-1.4l0.4-2
		c2,0.5,4,0.9,5.9,1.4L270.8,145.4z M263,143.5c-1.9-0.4-3.9-0.8-5.9-1.2l0.3-2c2,0.4,4,0.7,6,1.2L263,143.5z M160.6,142.4l-0.2-2
		c2-0.2,4-0.5,6-0.7l0.2,2C164.6,141.9,162.6,142.1,160.6,142.4z M255.1,142c-2-0.3-4-0.6-6-0.9l0.3-2c2,0.3,4.1,0.6,6,0.9
		L255.1,142z M168.6,141.5l-0.2-2c2-0.2,4-0.4,6.1-0.5l0.2,2C172.6,141.1,170.6,141.3,168.6,141.5z M247.1,140.9c-2-0.2-4-0.5-6-0.7
		l0.2-2c2,0.2,4.1,0.4,6.1,0.7L247.1,140.9z M176.6,140.8l-0.2-2c1.9-0.1,3.8-0.3,5.7-0.4l0.4,0l0.1,2l-0.4,0
		C180.4,140.5,178.5,140.7,176.6,140.8z M184.7,140.3l-0.1-2c2-0.1,4.1-0.2,6.1-0.3l0.1,2C188.7,140.1,186.7,140.2,184.7,140.3z
		 M239.1,140c-2-0.2-4-0.3-6-0.4l0.1-2c2,0.1,4.1,0.3,6.1,0.4L239.1,140z M192.8,139.9l-0.1-2c2.1-0.1,4.1-0.2,6.1-0.3l0.1,2
		C196.8,139.7,194.8,139.8,192.8,139.9z M200.8,139.5l-0.1-2c2.1-0.1,4.1-0.1,6.1-0.2l0.1,2C204.9,139.4,202.9,139.5,200.8,139.5z
		 M231.1,139.5c-2-0.1-4-0.2-6-0.2l0-2c2,0.1,4.1,0.1,6.1,0.2L231.1,139.5z M208.9,139.3l0-2c2.1,0,4.1-0.1,6.1-0.1l0,2
		C213,139.2,211,139.3,208.9,139.3z M223,139.2c-1.5,0-3,0-4.5,0c-0.5,0-1,0-1.5,0l0-2c0.6,0,1.2,0,1.7,0c1.5,0,2.9,0,4.3,0
		L223,139.2z"/>
	<path id="XMLID_77_" d="M310.8,165.2c-0.8-0.6-1.5-1.2-2.3-1.9l1.2-1.6c0.8,0.6,1.6,1.3,2.4,1.9L310.8,165.2z"/>
</g>
<g id="XMLID_42_">
	<path id="XMLID_45_" d="M278.8,205.5c-0.6-0.7-1.3-1.5-2-2.1l1.4-1.4c0.7,0.7,1.4,1.5,2.1,2.3L278.8,205.5z"/>
	<path id="XMLID_44_" d="M250.1,269.9c-0.3,0-0.7,0-1,0l0.1-2c0.3,0,0.6,0,1,0c1.6,0,3.3-0.1,4.9-0.3l0.3,2
		C253.5,269.8,251.8,269.9,250.1,269.9z M246.9,269.8c-2.1-0.2-4.2-0.5-6.2-1l0.5-1.9c1.9,0.5,3.9,0.8,5.9,0.9L246.9,269.8z
		 M257.3,269.2l-0.4-2c1.9-0.4,3.9-0.9,5.7-1.5l0.7,1.9C261.4,268.3,259.4,268.8,257.3,269.2z M238.7,268.3c-2-0.6-4-1.3-5.8-2.2
		l0.9-1.8c1.8,0.8,3.6,1.6,5.5,2.1L238.7,268.3z M265.3,266.9l-0.8-1.8c1.8-0.8,3.6-1.7,5.3-2.7l1,1.7
		C269.1,265.1,267.2,266.1,265.3,266.9z M231,265.1c-1.8-1-3.6-2.1-5.2-3.4l1.2-1.6c1.6,1.2,3.2,2.3,5,3.2L231,265.1z M272.6,262.9
		l-1.1-1.6c1.6-1.1,3.2-2.4,4.6-3.7l1.4,1.4C276,260.4,274.3,261.7,272.6,262.9z M279,257.5l-1.5-1.4c1.4-1.4,2.6-3,3.7-4.6l1.6,1.1
		C281.7,254.3,280.4,255.9,279,257.5z M284,250.9l-1.7-1c1-1.7,1.9-3.5,2.7-5.3l1.8,0.8C286.1,247.2,285.1,249.1,284,250.9z
		 M287.6,243.3l-1.9-0.7c0.7-1.9,1.2-3.8,1.5-5.7l2,0.4C288.8,239.3,288.3,241.4,287.6,243.3z M289.5,235.2l-2-0.3
		c0.2-1.6,0.3-3.3,0.3-4.9c0-0.3,0-0.7,0-1l2-0.1c0,0.4,0,0.7,0,1.1C289.9,231.8,289.8,233.5,289.5,235.2z M287.8,227.1
		c-0.2-2-0.5-3.9-0.9-5.9l1.9-0.5c0.5,2,0.8,4.1,1,6.2L287.8,227.1z M286.3,219.3c-0.6-1.9-1.3-3.8-2.1-5.5l1.8-0.9
		c0.9,1.9,1.7,3.8,2.2,5.8L286.3,219.3z M283.3,212c-0.9-1.7-2-3.4-3.2-5l1.6-1.2c1.3,1.7,2.4,3.4,3.4,5.2L283.3,212z"/>
	<path id="XMLID_47_" d="M224.1,260.3c-0.8-0.7-1.5-1.4-2.3-2.1l1.4-1.4c0.7,0.7,1.4,1.4,2.1,2L224.1,260.3z"/>
</g>
<path id="XMLID_7_" class="st2" d="M151.5,373.4V138.7c12.2-2,24.9-3.4,38-4.2c13.5-0.8,26.7-1.3,37.2-1.3c20.9,0,40.1,2.4,57.1,7.1
	c16.8,4.6,31.3,12,43.3,21.9c8.9,7.3,16.3,16.3,22.1,26.7c-6.6-14.8-15.8-27.1-27.6-36.8c-9.2-7.6-19.8-13.7-31.7-18.3
	c-1.4-0.4-2.7-0.8-4.1-1.2c-17.7-4.9-37.6-7.3-59.2-7.3c-10.6,0-24,0.5-37.7,1.3c-14.6,0.9-28.8,2.5-42.2,4.9l-3.3,0.6v240.1
	C146.1,372.5,148.8,373,151.5,373.4z"/>
</svg>
